<svg width="64" height="64" viewBox="0 0 64 64" fill="none" xmlns="http://www.w3.org/2000/svg">
	<rect width="64" height="64" fill="#1C1C1C" />
	<path
		d="M44.4022 50.3949C44.4821 50.4244 44.5619 50.4796 44.6419 50.4797C48.3285 50.484 52.0151 50.4842 55.7017 50.4785C55.7847 50.4784 55.8676 50.4053 55.9977 50.3464C58.4544 50.0774 60.3666 47.9333 60.3448 45.2716C60.3073 40.6892 60.3417 36.1063 60.3472 31.5236C60.3518 27.6909 60.3754 23.858 60.3567 20.0254C60.3469 18.0093 59.3988 16.5219 57.5907 15.6358C57.0878 15.3893 56.4997 15.3168 55.9373 15.1164C55.8529 15.0931 55.7686 15.0494 55.6842 15.0493C52.0243 15.0458 48.3644 15.0455 44.7044 15.0509C44.6202 15.051 44.5362 15.1209 44.415 15.1981C44.415 15.8285 44.415 16.4589 44.415 17.104C44.5824 17.104 44.717 17.104 44.8516 17.104C48.4017 17.1036 51.9519 17.1007 55.5021 17.1037C57.2204 17.1051 58.5008 18.3881 58.4986 20.1109C58.4876 28.5334 58.4732 36.9559 58.456 45.3783C58.4555 45.6159 58.429 45.8574 58.3814 46.0902C58.1126 47.4033 56.9375 48.4269 55.6709 48.3925C55.5586 48.3815 55.4462 48.3611 55.3338 48.3609C53.8559 48.3588 52.378 48.3597 50.9001 48.3596C48.8393 48.3596 46.7785 48.3574 44.7177 48.3651C44.609 48.3655 44.5006 48.4497 44.4 48.5516C44.3978 49.149 44.3957 49.7463 44.4022 50.3949ZM8.14949 48.4309C6.63936 48.2445 5.51472 46.9725 5.51413 45.43C5.51093 36.9938 5.51132 28.5576 5.51211 20.1214C5.51212 19.945 5.51561 19.7658 5.54489 19.5925C5.79493 18.1126 7.00095 17.1058 8.53339 17.104C12.1474 17.0998 15.7614 17.101 19.3755 17.1C19.4767 17.1 19.5778 17.1 19.7005 17.1C19.7005 16.4391 19.7005 15.8064 19.6885 15.1242C19.585 15.0983 19.4817 15.0514 19.3779 15.0502C18.7844 15.0429 18.1907 15.0465 17.5971 15.0465C14.5144 15.0465 11.4318 15.0452 8.34912 15.0518C8.23719 15.0521 8.12543 15.1304 7.96819 15.1932C5.91858 15.5033 4.52961 16.6205 3.85458 18.5889C3.60762 19.3091 3.6371 20.064 3.63753 20.8146C3.64218 29.0178 3.64066 37.2209 3.64391 45.424C3.64446 46.8147 4.14779 48.0015 5.14069 48.975C5.97447 49.7924 6.98859 50.2316 8.1547 50.4195C8.22974 50.4409 8.30476 50.4809 8.37982 50.481C12.0726 50.484 15.7653 50.4844 19.458 50.4784C19.5392 50.4783 19.6203 50.401 19.7038 50.3011C19.7038 49.692 19.7038 49.0829 19.6859 48.4275C19.5805 48.405 19.4752 48.3628 19.3698 48.3627C15.7546 48.3592 12.1393 48.3591 8.52403 48.3622C8.41633 48.3623 8.30867 48.4013 8.14949 48.4309ZM40.8121 9.29674C40.6285 9.27802 40.4448 9.25931 40.204 9.25277C37.2769 9.25248 34.3499 9.25308 31.4228 9.25162C28.9337 9.25037 26.4446 9.24673 23.9342 9.21094C23.8777 9.23226 23.8212 9.25358 23.717 9.29691C23.3024 9.45503 22.848 9.55053 22.4809 9.78352C21.5354 10.3836 21.0652 11.2761 21.0651 12.4069C21.0637 25.7291 21.0613 39.0514 21.0596 52.3736C21.0595 52.7693 21.0422 53.1665 21.0694 53.5605C21.1237 54.3471 21.8626 54.9289 22.6216 54.7408C22.936 54.6629 23.2544 54.471 23.496 54.2491C26.0119 51.9385 28.5135 49.6123 31.0169 47.288C31.7877 46.5724 32.3365 46.5725 33.0994 47.2794C35.6435 49.6364 38.1932 51.9874 40.7368 54.345C41.2053 54.7792 41.7339 54.9164 42.3154 54.6552C42.8876 54.3982 43.1228 53.9051 43.1229 53.2897C43.1267 39.6341 43.1309 25.9786 43.1334 12.323C43.1334 12.1571 43.1287 11.9877 43.0968 11.8258C42.8427 10.5395 42.0633 9.72842 40.8121 9.29674Z"
		fill="white" />
	<path
		d="M47.4203 20.451C48.1907 20.4358 48.9617 20.4466 49.7324 20.4459C51.2114 20.4469 52.6279 20.4456 54.0443 20.4492C55.1486 20.4519 55.7209 21.0253 55.7214 22.1272L55.7214 22.3084C55.7224 24.3102 55.7233 26.312 55.7192 28.3138C55.717 29.3703 55.1023 29.9716 54.0445 29.9713C51.8469 29.9707 49.6493 29.9721 47.4517 29.9724C46.4634 29.9725 45.8363 29.3424 45.8363 28.3506C45.8364 26.2572 45.8355 24.1638 45.8369 22.0703C45.8376 21.0751 46.4207 20.4708 47.4203 20.451Z"
		fill="#B76BCD" />
	<path
		d="M50.0363 39.2779C50.0593 41.0248 50.0356 42.7724 50.0305 44.5198C49.8665 45.2305 49.4626 45.5701 48.7893 45.5827C48.2173 45.5934 47.6446 45.5945 47.0728 45.5802C46.3189 45.5613 45.84 45.061 45.8378 44.3012C45.8331 42.7198 45.8303 41.1384 45.8339 39.557C45.836 38.63 46.2957 38.1754 47.2148 38.1739C47.7558 38.1731 48.2968 38.1732 48.8378 38.1759C49.4997 38.1791 50.0276 38.6169 50.0363 39.2779Z"
		fill="#E0615C" />
	<path
		d="M51.4024 44.2957C51.3959 43.6814 51.4028 43.067 51.4038 42.4527C51.4029 39.8391 51.4014 37.288 51.404 34.7369C51.4047 34.0366 51.9098 33.5084 52.6171 33.4892C53.2622 33.4716 53.9086 33.471 54.5536 33.4903C55.2386 33.5107 55.711 34.0527 55.7112 34.7873C55.7119 37.1094 55.7104 39.4314 55.7092 41.7534C55.7088 42.5865 55.711 43.4195 55.7046 44.2525C55.6982 45.096 55.1979 45.5911 54.3622 45.5918C53.8103 45.5923 53.2584 45.5937 52.7066 45.5904C51.9378 45.5857 51.4106 45.0657 51.4024 44.2957Z"
		fill="#00A6BB" />
	<path
		d="M17.3251 41.4765C15.0859 41.4831 12.8466 41.4806 10.6074 41.4817C10.1804 41.4811 9.81576 41.4865 9.45138 41.479C8.7265 41.4641 8.17069 40.9149 8.16679 40.2176C8.1628 39.5048 8.72787 38.9235 9.45319 38.9218C12.0777 38.9157 14.7023 38.9146 17.3268 38.9188C18.0406 38.92 18.5822 39.4839 18.5839 40.1988C18.5857 40.9089 18.0402 41.4744 17.3251 41.4765Z"
		fill="#E0615C" />
	<path
		d="M17.2592 22.6839C17.9626 22.6821 18.7565 23.264 18.5581 24.2794C18.3015 24.9661 17.8926 25.2494 17.2121 25.2492C14.6398 25.2485 12.0675 25.248 9.49525 25.2464C8.74469 25.2459 8.15768 24.6784 8.16435 23.9635C8.17088 23.2626 8.7478 22.6918 9.47989 22.6902C12.073 22.6843 14.6661 22.6906 17.2592 22.6839Z"
		fill="#00A6BB" />
	<path
		d="M9.57345 33.2229C9.06068 33.223 8.63682 33.0511 8.3538 32.6015C7.87953 31.6221 8.46961 30.6676 9.51012 30.6655C12.0827 30.6605 14.6552 30.6599 17.2278 30.6609C18.0176 30.6612 18.5915 31.2052 18.5899 31.9389C18.5882 32.6842 18.0236 33.2222 17.2286 33.2229C14.6769 33.225 12.1252 33.2228 9.57345 33.2229Z"
		fill="#B76BCD" />
</svg>