<svg width="1024" height="1024" viewBox="0 0 1024 1024" fill="none" xmlns="http://www.w3.org/2000/svg">
	<path
		d="M710.434 806.331C711.712 806.802 712.99 807.685 714.269 807.687C773.255 807.755 832.241 807.759 891.227 807.669C892.555 807.667 893.881 806.497 895.962 805.554C935.27 801.25 965.865 766.944 965.516 724.357C964.916 651.04 965.467 577.713 965.555 504.39C965.628 443.066 966.006 381.74 965.707 320.418C965.55 288.16 950.38 264.363 921.451 250.184C913.405 246.24 903.994 245.081 894.995 241.874C893.646 241.501 892.297 240.802 890.947 240.8C832.388 240.745 773.829 240.74 715.27 240.826C713.923 240.828 712.578 241.946 710.64 243.181C710.64 253.268 710.64 263.354 710.64 273.676C713.319 273.676 715.472 273.676 717.625 273.676C774.427 273.669 831.23 273.623 888.033 273.671C915.525 273.693 936.013 294.221 935.977 321.786C935.801 456.546 935.571 591.306 935.296 726.065C935.288 729.866 934.864 733.73 934.101 737.456C929.801 758.464 910.999 774.842 890.734 774.292C888.936 774.116 887.139 773.789 885.341 773.787C861.694 773.753 838.047 773.766 814.4 773.766C781.428 773.765 748.455 773.73 715.483 773.853C713.744 773.86 712.009 775.207 710.399 776.838C710.365 786.395 710.33 795.952 710.434 806.331ZM130.391 774.907C106.229 771.923 88.2348 751.572 88.2255 726.892C88.1742 591.913 88.1805 456.933 88.1931 321.954C88.1934 319.131 88.2492 316.264 88.7176 313.492C92.7182 289.813 112.015 273.704 136.534 273.676C194.358 273.609 252.183 273.627 310.007 273.611C311.626 273.611 313.245 273.611 315.208 273.611C315.208 263.038 315.208 252.915 315.016 241.998C313.359 241.585 311.707 240.835 310.046 240.815C300.549 240.699 291.051 240.756 281.553 240.756C232.23 240.756 182.908 240.735 133.585 240.841C131.794 240.845 130.006 242.099 127.49 243.103C94.6967 248.065 72.4732 265.94 61.6726 297.434C57.7212 308.957 58.1931 321.035 58.1999 333.046C58.2743 464.296 58.2499 595.546 58.3019 726.796C58.3107 749.047 66.364 768.036 82.2505 783.611C95.5909 796.69 111.817 803.717 130.475 806.723C131.675 807.065 132.876 807.706 134.076 807.707C193.16 807.756 252.244 807.762 311.328 807.666C312.627 807.664 313.924 806.428 315.261 804.83C315.26 795.084 315.26 785.339 314.973 774.851C313.288 774.491 311.602 773.817 309.916 773.815C252.072 773.759 194.228 773.758 136.384 773.806C134.661 773.808 132.938 774.433 130.391 774.907ZM652.993 148.76C650.055 148.46 647.116 148.161 643.263 148.056C596.431 148.051 549.598 148.061 502.765 148.038C462.939 148.018 423.112 147.959 382.947 147.387C382.042 147.728 381.138 148.069 379.472 148.762C372.838 151.292 365.567 152.82 359.694 156.548C344.566 166.149 337.042 180.429 337.04 198.522C337.018 411.678 336.981 624.834 336.952 837.99C336.952 844.321 336.675 850.676 337.11 856.98C337.979 869.565 349.801 878.874 361.945 875.865C366.976 874.619 372.07 871.547 375.935 867.998C416.19 831.028 456.216 793.808 496.271 756.62C508.602 745.171 517.383 745.172 529.589 756.482C570.295 794.194 611.091 831.809 651.789 869.531C659.284 876.479 667.741 878.674 677.045 874.495C686.202 870.383 689.964 862.493 689.966 852.647C690.027 634.158 690.094 415.669 690.134 197.18C690.134 194.525 690.059 191.816 689.548 189.225C685.483 168.643 673.013 155.666 652.993 148.76Z"
		fill="white" />
	<path
		d="M758.724 327.229C771.051 326.985 783.386 327.159 795.718 327.147C819.382 327.163 842.045 327.142 864.708 327.199C882.377 327.243 891.533 336.418 891.541 354.047L891.543 356.946C891.557 388.975 891.572 421.004 891.506 453.033C891.472 469.936 881.636 479.558 864.712 479.553C829.55 479.544 794.388 479.566 759.227 479.57C743.414 479.572 733.38 469.491 733.381 453.623C733.382 420.128 733.367 386.633 733.39 353.137C733.401 337.214 742.731 327.545 758.724 327.229Z"
		fill="#B76BCD" />
	<path
		d="M800.581 628.458C800.948 656.409 800.569 684.37 800.487 712.328C797.863 723.699 791.402 729.133 780.628 729.335C771.476 729.506 762.313 729.524 753.163 729.295C741.102 728.992 733.439 720.987 733.404 708.832C733.33 683.529 733.285 658.226 733.342 632.924C733.375 618.091 740.731 610.818 755.437 610.795C764.093 610.781 772.749 610.783 781.404 610.825C791.994 610.877 800.442 617.881 800.581 628.458Z"
		fill="#E0615C" />
	<path
		d="M822.438 708.744C822.334 698.916 822.445 689.085 822.461 679.256C822.446 637.438 822.422 596.621 822.464 555.803C822.475 544.598 830.557 536.147 841.873 535.839C852.195 535.558 862.537 535.548 872.857 535.856C883.817 536.184 891.375 544.855 891.379 556.61C891.39 593.762 891.366 630.915 891.347 668.067C891.341 681.396 891.376 694.724 891.274 708.052C891.17 721.548 883.166 729.469 869.794 729.481C860.964 729.489 852.134 729.512 843.305 729.458C831.004 729.383 822.569 721.064 822.438 708.744Z"
		fill="#00A6BB" />
	<path
		d="M277.201 663.637C241.373 663.742 205.546 663.703 169.718 663.72C162.886 663.712 157.052 663.797 151.221 663.677C139.623 663.44 130.73 654.651 130.668 643.495C130.604 632.091 139.645 622.789 151.25 622.762C193.243 622.664 235.236 622.647 277.228 622.714C288.648 622.732 297.314 631.755 297.342 643.194C297.37 654.555 288.643 663.603 277.201 663.637Z"
		fill="#E0615C" />
	<path
		d="M276.147 362.955C287.4 362.926 300.103 372.236 296.928 388.484C292.823 399.47 286.28 404.002 275.393 403.999C234.236 403.988 193.08 403.981 151.923 403.955C139.914 403.948 130.522 394.866 130.629 383.429C130.733 372.214 139.964 363.082 151.678 363.055C193.167 362.961 234.658 363.061 276.147 362.955Z"
		fill="#00A6BB" />
	<path
		d="M153.175 531.579C144.97 531.58 138.189 528.83 133.66 521.637C126.072 505.966 135.513 490.693 152.161 490.661C193.322 490.58 234.483 490.57 275.644 490.587C288.28 490.592 297.463 499.295 297.437 511.035C297.411 522.959 288.376 531.568 275.658 531.578C234.83 531.613 194.002 531.578 153.175 531.579Z"
		fill="#B76BCD" />
</svg>